<?xml version="1.0" encoding="utf-8"?>
<!-- Generator: Adobe Illustrator 22.0.1, SVG Export Plug-In . SVG Version: 6.00 Build 0)  -->
<svg version="1.1" id="レイヤー_1" xmlns="http://www.w3.org/2000/svg" xmlns:xlink="http://www.w3.org/1999/xlink" x="0px"
	 y="0px" viewBox="0 0 600 600" width="600" height="600" style="enable-background:new 0 0 600 600;" xml:space="preserve">
<path d="M599.9,100c0-52.6-47.4-100-100-100H100.1C47.5,0,0.1,47.4,0.1,100v400c0,52.6,47.4,100,100,100H300V373.3h-73.3v-100H300
	v-38.9c0-67.2,50.5-127.6,112.5-127.6h80.8v99.9h-80.8c-8.8,0-19.2,10.8-19.2,26.8v39.8h100v100h-100v226.6h106.6
	c52.6,0,100-47.4,100-100V100z"/>
</svg>
