<?xml version="1.0" encoding="utf-8"?>
<!-- Generator: Adobe Illustrator 22.0.1, SVG Export Plug-In . SVG Version: 6.00 Build 0)  -->
<svg version="1.1" id="レイヤー_1" xmlns="http://www.w3.org/2000/svg" xmlns:xlink="http://www.w3.org/1999/xlink" x="0px"
	 y="0px" viewBox="0 0 600 600" width="600" height="600" style="enable-background:new 0 0 600 600;" xml:space="preserve">
<path d="M544.1,421.2c-1.3,29.2-6.2,45.2-10.4,55.8c-5.4,13.9-12,23.9-22.5,34.4c-10.5,10.5-20.5,17-34.4,22.5
	c-10.5,4-26.5,8.9-55.8,10.4c-31.7,1.5-41.1,1.7-121.2,1.7s-89.6-0.2-121.2-1.7c-29.2-1.3-45.2-6.2-55.8-10.4
	c-13.9-5.4-23.9-12-34.4-22.5C78,500.9,71.5,490.9,66,477c-4-10.5-8.9-26.5-10.4-55.8c-1.5-31.7-1.7-41.1-1.7-121.2
	s0.2-89.6,1.7-121.2C57,149.6,61.9,133.6,66,123c5.4-13.9,12-23.9,22.5-34.4c10.5-10.5,20.5-17,34.4-22.5c10.5-4,26.5-8.9,55.8-10.4
	c31.7-1.5,41.1-1.7,121.2-1.7s89.6,0.2,121.2,1.7c29.2,1.3,45.2,6.2,55.8,10.4c13.9,5.4,23.9,12,34.4,22.5
	c10.5,10.5,17,20.5,22.5,34.4c4,10.5,8.9,26.5,10.4,55.8c1.5,31.7,1.7,41.1,1.7,121.2S545.6,389.6,544.1,421.2z M598.2,176.2
	c-1.5-32-6.6-53.8-13.9-72.9c-7.6-19.8-17.9-36.4-34.5-53.1c-16.7-16.7-33.4-27-53.1-34.5c-19-7.3-40.9-12.4-72.9-13.9
	C391.8,0.4,381.5,0,300,0s-91.7,0.4-123.8,1.8c-32,1.5-53.8,6.6-72.9,13.9C83.6,23.3,67,33.7,50.3,50.3
	c-16.7,16.7-27,33.4-34.5,53.1c-7.3,19-12.4,40.9-13.9,72.9C0.4,208.2,0,218.5,0,300s0.4,91.7,1.8,123.8c1.5,32,6.6,53.8,13.9,72.9
	c7.6,19.8,17.9,36.4,34.5,53.1c16.7,16.7,33.4,27,53.1,34.5c19,7.3,40.9,12.4,72.9,13.9S218.5,600,300,600s91.7-0.4,123.8-1.8
	c32-1.5,53.8-6.6,72.9-13.9c19.8-7.6,36.4-17.9,53.1-34.5c16.7-16.7,27-33.4,34.5-53.1c7.3-19,12.4-40.9,13.9-72.9
	c1.5-32,1.8-42.2,1.8-123.8C599.9,218.5,599.6,208.3,598.2,176.2z M299.9,400c-55.3,0-100-44.7-100-100s44.7-100,100-100
	s100,44.7,100,100S355.2,400,299.9,400z M299.9,145.9c-85.1,0-154.1,69.1-154.1,154.1s69.1,154.1,154.1,154.1S454,385.2,454,300
	C454,214.9,384.9,145.9,299.9,145.9z M460,103.9c-19.9,0-36,16.1-36,36c0,19.9,16.1,36,36,36c19.9,0,36-16.1,36-36
	C496,120,479.9,103.9,460,103.9z"/>
</svg>
