<?xml version="1.0" encoding="utf-8"?>
<!-- Generator: Adobe Illustrator 22.0.1, SVG Export Plug-In . SVG Version: 6.00 Build 0)  -->
<svg version="1.1" id="レイヤー_1" xmlns="http://www.w3.org/2000/svg" xmlns:xlink="http://www.w3.org/1999/xlink" x="0px"
	 y="0px" viewBox="0 0 600 600" width="600" height="600" style="enable-background:new 0 0 600 600;" xml:space="preserve">
<path d="M443.3,246.8c12.8,0,25.7-0.1,38.5,0.1c9.3,0.1,15.4,7,15.3,16.6c-0.1,8.4-7.2,15-16,15.1c-12.7,0-25.3,0-38,0
	c-1.4,0-2.9,0-4.2,0c0,9,0,17.7,0,26.9c1.7,0,3.1,0,4.4,0c13,0,26.2-0.1,39.3,0.1c8.6,0.2,14.6,7.2,14.5,16.4
	c-0.1,8.1-7.1,15.3-15,15.3c-19.8,0.1-39.6,0.1-59.5,0c-8.3,0-15.1-7-15.1-15.5c0-39.5,0-79,0-118.5c0-8.3,6.7-15,15-15
	c19.8-0.1,39.6-0.1,59.5,0c8.6,0,15.3,7,15.3,15.8c0,8.7-6.7,15.7-15.3,15.8c-12.9,0.1-25.9,0-38.8,0c-1.4,0-2.9,0-4.1,0
	c0,9.1,0,17.7,0,26.9C440.5,246.8,441.9,246.8,443.3,246.8z M387.2,319.6c0,10.5-7.4,18.1-17,17.7c-5.5-0.3-9.5-3.3-12.7-7.7
	c-19.1-26.1-38.3-52.2-58.2-79.2c0,10.5,0,19.9,0,29.2c0,7.5,0,15,0,22.6l0,0c0,6.3,0,12.7,0,19c-0.1,7.7-6.3,14.9-13.8,16
	c-7.2,1.1-14.9-3.6-17.3-10.9c-0.8-2.5-1.1-5.4-1.1-8.2c-0.1-36.8-0.1-73.8,0-110.6c0-2.9,0.2-5.9,1.1-8.5c1.8-6,6.1-9.5,12.2-10.6
	c7-1.2,12.4,1.7,16.4,7.3c6,8.2,11.9,16.4,18,24.5c12.6,17.1,25.1,34.3,37.7,51.4c0.6,0.8,1.2,1.5,2.4,3.1c0-2.4,0-3.8,0-5.2
	c0-21,0-42,0-63c0-5.3,1.2-10.2,5.3-13.9c4.8-4.4,10.5-5.6,16.5-3.3c6.1,2.4,9.6,7.2,10.4,13.8c0.1,0.9,0.1,1.9,0.1,2.8
	C387.2,243.7,387.2,281.6,387.2,319.6z M246.1,320.7c0,7.9-5.4,14.5-12.9,16.4c-6.2,1.5-14.2-2.2-17.1-8.5c-1.2-2.7-2-5.8-2.1-8.7
	c-0.1-38-0.2-76.1,0-114.1c0-12.5,10.7-20.6,21.5-16.7c6.6,2.4,10.8,8.6,10.8,16.4c0,19.1,0,38.3,0,57.5
	C246.2,282.1,246.2,301.4,246.1,320.7z M185.7,337.2c-20.1,0.2-40.1,0.1-60.3,0c-7.6,0-14.4-6.7-14.9-14.3c-0.1-0.9-0.1-1.9-0.1-2.8
	c0-38.4,0-76.6,0-115c0-9.7,6.3-16.8,14.9-17c9.6-0.2,16.8,6.7,16.8,16.5c0,31.8,0,63.7,0,95.5c0,1.5,0,3.2,0,5.2
	c14.4,0,28.2-0.1,42,0c8.5,0.1,13.8,4.3,15.9,12.4C202.6,326.9,195.2,337.1,185.7,337.2z M567.5,157.9
	c-25.1-43.5-61.2-75.5-105.1-99c-56.8-30.4-117.8-42.4-182-39c-41.4,2.1-81.3,11.2-119.3,27.8c-42.5,18.6-79.4,44.8-108.6,81.2
	C25.1,163.1,9,202,5.9,245.9c-1.3,18,0.1,36,4.1,53.7c11.3,50.8,38.8,91.3,78,124.6c24.2,20.6,51.4,36.3,80.9,48.1
	c24.4,9.7,49.5,16.6,75.5,20.5c8.6,1.2,17,3,24.8,7.2c5.6,3,9.6,7.2,10.5,13.9c1.3,9.7,0.1,19.2-1.4,28.8
	c-1.4,8.4-3.1,16.9-3.9,25.3c-0.9,9.2,3.1,12.9,10.8,12.6c3.1-0.1,6.3-0.9,9.1-2.2c12.1-5.8,24.3-11.2,35.8-18
	c56-33.3,109.4-70.3,158.7-113c23.1-20,44.5-41.8,62.8-66.3c27.2-36.3,43-76.7,43-131.8C594.6,222.6,585.4,189.1,567.5,157.9z"/>
</svg>
