<?xml version="1.0" encoding="utf-8"?>
<!-- Generator: Adobe Illustrator 22.0.1, SVG Export Plug-In . SVG Version: 6.00 Build 0)  -->
<svg version="1.1" id="レイヤー_1" xmlns="http://www.w3.org/2000/svg" xmlns:xlink="http://www.w3.org/1999/xlink" x="0px"
	 y="0px" width="600" height="600" viewBox="0 0 600 600" style="enable-background:new 0 0 600 600;" xml:space="preserve">
<path d="M-54.5,562.2V600h-29.4l-388.8-451.7v405.6c0,29.4,25.2,46.2,25.2,46.2h-83.9c0,0,21-16.8,21-46.2V42c0-29.4-21-42-21-42
	h67.1l367.8,426.6V42c0-29.4-21-42-21-42h83.9c0,0-21,12.6-21,42L-54.5,562.2L-54.5,562.2z M283.9,600c0,0,16.8-12.6,29.4-46.2
	L524.5,0h50.3l16.8,42l207,511.9c12.6,33.6,29.4,46.2,29.4,46.2H685.3c0,0,21-12.6,12.6-42c0,0-4.2-4.2-50.3-123.1H401.4
	c-42,106.3-46.1,123.1-46.1,123.1c-12.6,29.4,12.5,42,12.5,42H283.9z M629.4,393L520.3,118.9L414,393H629.4z M1170.6,0l169.2,290.9
	l144.1-249c16.8-29.4-4.2-42-4.2-42h79.7l-29.4,42l-177.6,296.5v215.4c0,29.4,25.2,46.2,25.2,46.2h-138.5c0,0,21-16.8,21-46.2V338.4
	L1090.9,46.2c-12.6-21-37.8-46.2-37.8-46.2L1170.6,0L1170.6,0z M1986,553.8c0,29.4,21,46.2,21,46.2h-138.4c0,0,25.2-16.8,25.2-46.2
	V42c0-29.4-25.2-42-25.2-42H2007c0,0-21,12.6-21,42V553.8z M-1407,600c0,0,12.6-12.6,30.8-46.2l207-553.8h54.5l21,42l202.8,511.9
	c12.6,33.6,33.6,46.2,33.6,46.2h-152.4c0,0,25.2-16.8,12.6-46.2l-46.1-118.9h-244.8c-42,106.3-46.2,118.9-46.2,118.9
	c-12.6,29.4,12.6,46.2,12.6,46.2H-1407z M-1060.1,393l-109.1-274.1L-1275.5,393H-1060.1z"/>
</svg>
