<?xml version="1.0" encoding="utf-8"?>
<!-- Generator: Adobe Illustrator 22.0.1, SVG Export Plug-In . SVG Version: 6.00 Build 0)  -->
<svg version="1.1" id="レイヤー_1" xmlns="http://www.w3.org/2000/svg" xmlns:xlink="http://www.w3.org/1999/xlink" x="0px"
	 y="0px" viewBox="0 0 600 600" width="600" height="600" style="enable-background:new 0 0 600 600;" xml:space="preserve">
<path d="M600,113.9c-22.1,9.8-45.8,16.4-70.7,19.4c25.4-15.3,45-39.3,54.1-68.1c-23.8,14.1-50.2,24.4-78.1,29.9
	c-22.5-24.1-54.5-39-89.9-39c-68,0-123.1,55.1-123.1,123.1c0,9.6,1.1,19.1,3.2,28.1c-102.3-5.1-193-54.2-253.7-128.6
	C31.1,96.9,25,118.1,25,140.6c0,42.7,21.7,80.4,54.8,102.4c-20.1-0.6-39.1-6.1-55.8-15.4c0,0.5,0,1.1,0,1.6
	c0,59.7,42.4,109.4,98.7,120.7c-10.3,2.9-21.2,4.3-32.4,4.3c-8,0-15.7-0.7-23.1-2.2c15.7,48.9,61.2,84.5,115,85.5
	c-42.1,33-95.2,52.7-152.9,52.7c-10,0-19.7-0.5-29.4-1.7c54.4,34.9,119.2,55.3,188.6,55.3c226.5,0,350.2-187.6,350.2-350.2
	c0-5.3-0.1-10.6-0.3-15.9C562.6,160.3,583.5,138.6,600,113.9z"/>
</svg>
